<svg width="30" height="30" viewBox="0 0 30 30" fill="none" xmlns="http://www.w3.org/2000/svg">
<path d="M20.9435 3.66896C21.275 3.33748 21.6685 3.07454 22.1017 2.89514C22.5348 2.71575 22.9991 2.62341 23.4679 2.62341C23.9367 2.62341 24.401 2.71575 24.8341 2.89514C25.2673 3.07454 25.6608 3.33748 25.9924 3.66896C26.3239 4.00044 26.5868 4.39396 26.7663 4.82706C26.9457 5.26016 27.038 5.72436 27.038 6.19314C27.038 6.66192 26.9457 7.12612 26.7663 7.55921C26.5868 7.99231 26.3239 8.38584 25.9924 8.71732L8.95235 25.7555L2.01013 27.6486L3.90347 20.7072L20.9435 3.66896Z" stroke="#757575" stroke-width="4" stroke-linecap="round" stroke-linejoin="round"/>
</svg>
